<?xml version="1.0" standalone="no"?>
<svg width="32" height="32" viewBox="0 0 32 32" xmlns="http://www.w3.org/2000/svg" xmlns:xlink="http://www.w3.org/1999/xlink" version="1.1"><path d="M 16 0 L 6 0 L 3 3 L 0 6 L 0 16 L 0 26 L 3 29 L 6 32 L 16 32 L 26 32 L 29 29 L 32 26 L 32 16 L 32 6 L 29 3 L 26 0 L 16 0 Z M 24 9.256405477326139 C 24.825 9.904118039172168 25.725 10.573168950649935 26 10.743185280610062 C 26.275 10.913201610570189 23.8 13.745248796509447 20.5 17.03662347158619 C 17.2 20.327998146662935 14.05 23.02438528246646 13.5 23.02859488448292 C 12.95 23.032804486499376 10.925 21.471139279494555 9 19.558227757805536 C 5.864426955842129 16.442345262601847 5.656182981075198 15.915212113970547 7 14.495578053570144 C 7.824999999999999 13.624032237929695 8.95 12.942360898991915 9.5 12.980752855930628 C 10.05 13.019144812869342 11.306403358272616 13.826681220850789 12.292007462828035 14.77527820700051 L 14.084014925656072 16.5 L 18.292007462828035 12.28937313698486 C 21.727158089500463 8.852072006006377 22.775490713329166 8.295035723297264 24 9.256405477326139 Z " fill="#000000"></path></svg>
